<?xml version="1.0" standalone="no"?>
<!DOCTYPE svg PUBLIC "-//W3C//DTD SVG 20010904//EN"
 "http://www.w3.org/TR/2001/REC-SVG-20010904/DTD/svg10.dtd">
<svg version="1.0" xmlns="http://www.w3.org/2000/svg"
 width="1478.000000pt" height="1478.000000pt" viewBox="0 0 1478.000000 1478.000000"
 preserveAspectRatio="xMidYMid meet">
<metadata>
Created by potrace 1.14, written by Peter Selinger 2001-2017
</metadata>
<g transform="translate(0.000000,1478.000000) scale(0.100000,-0.100000)"
fill="#000000" stroke="none">
<path d="M8064 14745 c-27 -36 -25 -55 6 -55 33 0 29 -14 -11 -43 l-39 -28
-27 40 c-27 39 -30 40 -73 35 -41 -4 -53 -12 -63 -39 -2 -5 -13 0 -23 13 l-19
22 -90 -25 c-109 -31 -116 -33 -135 -34 -8 -1 -21 -5 -29 -10 -12 -8 -7 -18
24 -52 l39 -43 -30 -8 c-16 -4 -38 -10 -49 -13 -11 -2 -45 -11 -75 -19 -69
-20 -81 -20 -74 -1 7 17 -11 21 -21 5 -4 -6 -11 -8 -16 -5 -10 7 -10 5 -12
-65 -2 -33 -6 -46 -19 -48 -12 -2 -22 12 -36 50 -11 29 -28 71 -37 92 l-17 39
-34 -39 c-18 -21 -34 -42 -34 -45 0 -3 -10 -17 -22 -31 -13 -14 -32 -38 -43
-53 -11 -16 -26 -34 -32 -41 -7 -7 -13 -17 -13 -23 0 -15 -27 -14 -34 2 -4 8
-9 6 -18 -7 -7 -11 -23 -31 -36 -44 -25 -26 -30 -26 -124 -1 -44 11 -49 11
-102 -20 -31 -17 -58 -31 -60 -31 -3 0 -17 11 -32 25 -15 14 -30 25 -33 25 -3
0 -22 -14 -41 -31 -73 -64 -98 -79 -166 -100 -38 -12 -73 -22 -79 -24 -5 -1
-23 -7 -38 -13 -16 -7 -34 -12 -42 -12 -19 0 -28 -17 -13 -23 10 -3 10 -11 -2
-33 -15 -28 -35 -32 -35 -7 -1 38 -27 17 -78 -62 -28 -43 -36 -50 -61 -48 -16
1 -41 14 -56 28 -15 14 -30 21 -36 17 -5 -5 -25 -15 -44 -22 -42 -16 -230
-140 -230 -152 0 -4 -7 -8 -15 -8 -8 0 -15 -4 -15 -8 0 -4 -14 -16 -32 -26
-54 -33 -114 -87 -162 -147 -55 -69 -73 -85 -92 -82 -10 3 -29 4 -41 4 -13 0
-23 5 -23 12 0 15 -78 67 -101 67 -42 0 -185 -89 -478 -299 -97 -69 -202 -141
-233 -160 -32 -19 -72 -47 -89 -62 -30 -26 -31 -28 -15 -50 9 -13 16 -28 16
-34 0 -7 -48 -36 -107 -65 -60 -29 -111 -58 -114 -63 -3 -5 -10 -8 -15 -8 -13
1 -413 -199 -419 -209 -3 -5 9 -11 27 -15 59 -12 68 -16 68 -33 0 -15 -67 -91
-223 -251 -25 -26 -43 -52 -39 -57 14 -16 32 -64 24 -64 -4 1 -20 18 -37 40
-22 29 -35 37 -50 33 -28 -8 -30 -11 -15 -28 10 -13 8 -19 -15 -38 -16 -12
-31 -24 -34 -27 -3 -3 -30 -53 -59 -112 -50 -101 -61 -116 -185 -241 -161
-162 -181 -186 -217 -262 -27 -56 -71 -194 -84 -260 -10 -58 -17 -90 -28 -130
-5 -22 -12 -47 -14 -55 -41 -185 -66 -301 -70 -334 -3 -22 -9 -55 -14 -73 -9
-34 -6 -200 3 -243 28 -121 28 -202 0 -435 -7 -59 -6 -277 1 -320 2 -16 7 -45
10 -62 3 -18 9 -48 12 -65 3 -18 7 -44 9 -58 3 -14 9 -47 14 -75 19 -103 21
-116 26 -168 2 -28 7 -74 10 -102 14 -125 24 -226 30 -306 8 -93 16 -186 20
-229 2 -25 7 -74 10 -110 13 -163 23 -272 30 -340 15 -131 23 -380 14 -432 -7
-40 -4 -49 15 -42 7 3 11 28 10 70 0 39 3 61 8 56 5 -5 11 -16 12 -23 2 -8 9
-27 16 -44 7 -16 14 -33 15 -37 2 -5 4 -11 5 -15 1 -5 2 -11 1 -15 0 -5 3 -8
8 -8 22 0 38 -145 19 -175 -10 -16 18 -72 43 -85 12 -7 70 -14 128 -16 95 -2
217 -11 267 -18 18 -3 19 -14 20 -162 2 -339 41 -556 149 -819 4 -11 7 -23 7
-27 -1 -5 3 -8 10 -8 6 0 9 -3 6 -6 -14 -13 146 -273 207 -336 14 -16 24 -28
22 -28 -7 0 123 -129 174 -173 54 -47 249 -181 249 -171 0 4 8 0 18 -9 15 -13
194 -105 207 -106 3 -1 22 -8 43 -17 69 -29 110 -43 116 -37 3 4 6 2 6 -4 0
-5 6 -10 13 -11 6 -1 37 -8 67 -17 83 -25 180 -46 230 -50 25 -3 56 -7 70 -10
14 -3 72 -6 130 -5 168 1 239 10 369 46 47 14 92 25 99 26 6 1 12 4 12 8 0 4
6 7 13 7 7 0 38 12 69 26 31 15 59 27 62 27 7 0 208 123 228 138 7 6 26 23 42
37 16 14 32 25 37 25 15 0 246 236 308 315 35 44 102 121 150 170 122 126 242
279 232 294 -2 2 1 7 6 10 5 3 18 29 28 56 39 103 18 296 -46 411 -15 27 -15
35 -3 55 7 13 16 31 20 39 3 8 13 31 21 50 9 19 26 49 39 67 l25 32 237 -4
c130 -2 284 -7 342 -10 58 -3 141 -8 185 -10 257 -13 303 -17 328 -26 15 -6
27 -14 27 -18 1 -3 2 -28 4 -56 3 -47 19 -120 34 -155 4 -8 7 -35 7 -60 0 -25
3 -47 7 -50 9 -7 -37 -98 -63 -126 -21 -23 -21 -39 6 -144 8 -30 16 -66 19
-80 2 -14 8 -36 13 -50 5 -14 9 -32 8 -40 -1 -8 1 -19 4 -25 3 -5 6 -16 7 -25
2 -13 39 -196 49 -240 2 -8 4 -21 4 -27 2 -22 41 -15 41 7 0 30 17 25 74 -22
64 -54 70 -61 106 -128 34 -63 63 -113 70 -120 14 -14 50 -70 50 -79 0 -5 3
-11 8 -13 4 -1 27 -28 52 -58 69 -86 159 -177 220 -223 30 -23 57 -44 60 -47
12 -12 97 -67 125 -80 17 -8 32 -17 35 -20 5 -5 60 -32 70 -35 3 0 27 -11 54
-23 27 -12 54 -22 61 -22 6 0 15 -3 19 -7 3 -4 12 -8 19 -9 7 -1 49 -12 95
-23 46 -12 102 -24 125 -27 23 -3 58 -9 77 -13 37 -8 365 -6 415 2 17 3 50 9
75 12 25 4 53 11 63 16 9 6 17 8 17 5 0 -2 16 0 36 6 20 5 44 11 53 13 86 18
441 176 441 197 0 4 5 8 11 8 9 0 93 54 109 70 3 3 30 24 61 46 54 41 221 204
267 261 87 108 192 275 233 369 11 27 26 60 32 74 6 14 11 30 12 35 1 6 9 27
17 47 14 31 47 152 64 229 7 36 20 127 29 219 19 180 81 229 247 195 30 -6 42
-3 65 15 45 35 52 55 38 114 -15 63 -39 112 -63 125 -27 15 -79 22 -202 27
-154 7 -153 7 -157 34 -13 89 -204 320 -354 430 -30 22 -59 43 -65 47 -98 74
-376 187 -554 228 -61 13 -133 39 -145 52 -15 14 -14 27 2 70 3 8 -20 12 -84
12 -126 -1 -130 0 -131 14 -2 29 -15 83 -22 97 -10 18 5 47 33 71 18 14 19 18
6 45 -14 28 -17 29 -79 28 -152 -3 -427 -26 -577 -49 -89 -14 -113 -18 -168
-31 -33 -8 -71 -17 -85 -20 -14 -3 -56 -14 -95 -25 -38 -11 -78 -22 -88 -24
-10 -2 -27 -7 -37 -10 -10 -3 -27 -8 -37 -10 -10 -3 -58 -16 -108 -30 -49 -13
-93 -25 -97 -25 -5 0 -8 -6 -8 -12 0 -12 -69 -58 -87 -58 -4 0 -21 11 -37 25
-35 30 -38 30 -35 8 1 -10 0 -20 -1 -23 -1 -3 -3 -17 -5 -31 -2 -15 -33 -88
-69 -163 -36 -75 -66 -140 -66 -146 0 -5 -4 -10 -10 -10 -5 0 -10 -5 -10 -12
0 -25 -164 -340 -191 -367 -26 -27 -32 -28 -96 -25 -88 5 -176 13 -233 20 -25
3 -148 7 -275 9 -126 1 -248 6 -270 10 -40 7 -59 10 -105 19 -90 17 -186 22
-235 12 -70 -15 -145 -69 -185 -135 -14 -22 -28 -41 -32 -41 -3 0 -12 17 -19
38 -6 20 -15 42 -19 47 -4 6 -24 53 -45 105 -76 193 -81 232 -45 369 22 86 19
100 -17 101 -7 0 -13 5 -13 10 0 14 31 12 79 -5 22 -8 41 -12 41 -9 0 2 -18
37 -40 77 -22 39 -59 107 -83 149 -23 43 -45 78 -50 78 -4 0 -10 -14 -14 -30
-3 -17 -10 -33 -14 -36 -5 -3 -7 -10 -4 -15 4 -5 2 -9 -2 -9 -5 0 -15 -20 -22
-45 -7 -25 -17 -47 -21 -50 -11 -7 -53 34 -91 90 -44 66 -61 79 -144 110 -38
15 -79 31 -90 36 -11 4 -47 18 -80 29 -33 12 -69 25 -80 30 -11 5 -49 19 -85
30 -36 12 -72 24 -80 27 -8 3 -19 7 -25 9 -5 2 -37 12 -69 24 -33 11 -64 20
-71 20 -7 0 -26 7 -44 16 -26 13 -51 15 -119 10 -48 -3 -93 -5 -99 -6 -20 0
-15 -20 4 -20 32 0 5 -10 -38 -15 -24 -2 -69 -8 -99 -14 -30 -5 -73 -13 -95
-16 -22 -3 -51 -8 -65 -10 -35 -6 -120 -16 -152 -18 -19 -1 -24 -5 -16 -14 6
-8 17 -9 34 -3 13 5 24 6 24 2 0 -4 24 -8 53 -8 119 -3 177 -7 177 -15 0 -5
-72 -8 -160 -7 -148 1 -160 3 -155 19 5 15 1 17 -32 13 -107 -12 -122 -14
-218 -30 -26 -4 -89 -16 -150 -28 -83 -17 -162 -39 -172 -48 -7 -6 -13 -8 -13
-5 0 3 -27 -5 -59 -18 -33 -13 -62 -20 -65 -17 -3 3 -6 1 -6 -5 0 -6 -12 -14
-27 -18 -16 -3 -49 -20 -75 -36 -27 -16 -48 -25 -48 -21 0 4 -4 2 -8 -3 -4 -6
-32 -26 -62 -45 -30 -19 -68 -46 -85 -60 -50 -43 -175 -172 -175 -181 0 -5 -4
-9 -9 -9 -4 0 -25 -16 -46 -35 -46 -44 -92 -68 -116 -62 -11 3 -19 2 -19 -2 0
-13 -277 -10 -315 3 -48 17 -55 26 -72 88 -27 99 -39 195 -48 373 -3 44 -7
112 -10 150 -3 39 -7 80 -7 93 -1 12 -5 22 -9 22 -5 0 -1 35 17 140 3 19 7 44
8 55 2 11 6 36 10 55 22 123 30 183 28 220 -1 43 46 260 62 279 6 8 10 17 8
20 -1 3 7 48 19 99 11 52 22 101 24 110 2 9 4 17 5 17 1 0 3 11 5 25 3 22 9
51 31 145 3 11 7 29 9 40 3 11 7 30 10 43 3 12 7 31 10 43 2 11 6 28 9 37 3 9
7 28 10 42 10 57 48 227 56 255 5 17 12 42 15 58 9 49 16 78 30 141 8 33 17
75 20 93 3 18 9 43 15 57 5 15 8 26 5 26 -2 0 1 15 6 33 5 17 12 46 15 62 13
74 80 356 85 354 5 -3 54 27 102 64 30 24 35 32 26 43 -9 11 -9 17 3 27 17 14
48 63 48 75 0 14 102 196 112 200 4 2 8 8 8 13 0 6 32 55 70 109 71 100 146
181 234 253 46 38 47 39 42 91 -11 140 51 199 411 387 54 28 103 55 109 60 6
5 14 6 17 2 4 -3 7 -1 7 5 0 7 9 12 19 12 11 0 21 3 23 8 2 4 44 26 93 49 50
23 122 56 160 74 39 19 75 34 80 36 37 8 53 12 77 22 66 25 237 35 279 15 80
-38 125 -45 115 -19 -6 17 -10 16 72 19 l64 2 -6 -27 c-5 -26 -4 -27 82 -48
48 -11 98 -22 112 -25 14 -2 32 -7 40 -10 8 -3 29 -7 45 -9 63 -10 85 -19 85
-37 0 -27 16 -36 95 -56 9 -2 158 -46 218 -64 15 -5 27 -6 27 -3 0 3 6 1 13
-4 6 -6 37 -16 67 -23 30 -7 60 -15 65 -19 6 -3 15 -6 20 -7 6 -1 44 -12 85
-24 41 -13 82 -24 90 -25 8 -1 22 -5 30 -8 8 -3 49 -15 90 -27 133 -38 139
-40 133 -56 -3 -9 1 -14 12 -14 9 0 31 -6 48 -13 36 -15 97 -37 112 -40 6 -2
16 -6 22 -10 7 -5 21 -10 30 -12 18 -4 206 -70 233 -82 8 -3 18 -7 23 -8 4 -2
9 -4 12 -5 3 -1 8 -3 13 -5 4 -1 16 -5 27 -9 11 -4 34 -12 50 -18 17 -5 39
-14 50 -18 17 -7 289 -104 322 -115 6 -2 16 9 22 26 l10 29 83 -5 c94 -5 233
-12 423 -20 72 -3 180 -8 240 -11 61 -2 133 -11 160 -19 28 -8 61 -16 75 -19
14 -3 73 -19 133 -35 59 -16 107 -27 107 -23 0 3 5 1 12 -6 7 -7 19 -12 28
-12 8 0 35 -18 59 -40 81 -72 126 -75 165 -9 16 26 22 29 54 25 37 -5 95 -12
182 -22 25 -3 56 -7 70 -8 14 -2 54 -7 90 -11 36 -4 68 -9 71 -11 3 -2 20 -6
37 -9 17 -3 58 -12 91 -21 34 -8 69 -17 78 -19 10 -1 86 -19 168 -38 200 -47
215 -50 215 -40 0 15 -37 67 -76 109 -59 63 -144 179 -144 198 0 10 81 -5 113
-21 15 -7 27 -11 27 -8 0 3 20 -8 44 -25 25 -16 47 -30 51 -30 3 0 32 -17 63
-37 31 -21 68 -44 82 -51 56 -29 64 -40 52 -66 -13 -30 -3 -41 51 -50 47 -9
87 -26 87 -38 0 -5 23 -42 50 -84 28 -41 50 -77 50 -79 0 -3 23 -40 50 -83 28
-43 50 -84 50 -90 0 -5 4 -12 8 -14 12 -4 119 -199 144 -262 23 -56 96 -314
112 -394 3 -12 7 -26 10 -30 3 -5 7 -19 9 -33 3 -13 12 -53 21 -89 9 -36 18
-75 21 -87 3 -13 7 -33 10 -45 3 -13 7 -39 10 -58 2 -19 4 -35 5 -35 1 0 3
-13 5 -30 2 -16 7 -50 10 -75 9 -59 12 -92 19 -165 7 -65 14 -128 20 -160 7
-39 36 -190 41 -215 9 -44 34 -194 39 -230 7 -54 16 -110 28 -175 5 -33 12
-73 13 -90 2 -16 6 -48 9 -70 11 -75 16 -110 21 -140 3 -16 7 -41 9 -55 2 -14
7 -41 10 -60 6 -37 14 -92 22 -149 2 -19 7 -47 9 -63 4 -23 36 -232 50 -328
18 -127 28 -180 34 -180 3 0 7 24 7 53 2 59 13 302 14 302 1 0 3 36 5 80 9
171 27 388 40 490 7 50 16 127 20 180 3 28 7 66 10 85 2 19 7 67 10 105 3 39
8 93 11 120 3 28 7 75 9 105 6 76 6 403 1 470 -3 30 -7 89 -10 130 -4 41 -8
98 -11 125 -9 96 -17 291 -20 480 -2 105 -4 190 -5 190 0 0 -2 86 -4 190 -6
292 -16 486 -28 530 -5 22 -34 86 -64 143 -30 56 -53 102 -50 102 3 0 1 12 -5
28 -13 33 -25 97 -34 177 -4 33 -9 68 -11 77 -1 10 13 40 31 67 19 28 58 99
87 158 29 59 54 109 55 111 1 2 10 -1 22 -7 24 -13 29 -7 36 45 2 21 11 76 18
121 14 85 9 95 -19 40 -9 -18 -20 -34 -23 -37 -4 -3 -12 -17 -18 -32 -13 -29
-35 -30 -98 -6 -50 20 -51 31 -14 140 10 31 19 59 19 61 0 1 -12 4 -27 5 -16
1 -39 5 -53 8 -14 3 -38 7 -53 10 -41 8 -82 27 -84 41 -4 18 63 35 110 28 51
-8 96 -14 142 -19 32 -4 33 -3 22 15 -6 10 -15 19 -18 19 -5 0 -18 10 -65 49
-6 5 -24 16 -40 25 -16 9 -42 25 -59 36 -16 11 -43 27 -60 36 -16 9 -33 21
-37 27 -5 9 25 51 87 123 42 49 80 99 80 107 0 4 -13 16 -30 25 -16 9 -32 19
-35 22 -3 3 -20 13 -38 23 -81 43 -97 53 -109 64 -7 6 -22 15 -33 18 -11 3
-20 11 -20 16 0 5 -5 9 -10 9 -6 0 -46 23 -90 50 -44 28 -84 50 -90 50 -5 0
-10 5 -10 10 0 6 -7 10 -15 10 -14 0 -20 12 -16 33 1 7 -55 36 -81 43 -5 1
-10 3 -13 4 -3 1 -8 3 -12 4 -5 1 -26 10 -48 20 -52 23 -82 29 -90 17 -7 -13
-16 -10 -130 40 -27 12 -54 22 -61 23 -7 1 -20 8 -30 16 -9 8 -19 14 -20 13
-5 -3 -32 6 -81 28 -24 10 -45 19 -48 19 -2 0 -34 14 -70 30 -36 17 -68 30
-70 30 -2 0 -28 11 -57 24 -29 12 -61 26 -71 29 -17 6 -44 62 -39 80 1 4 -3 7
-10 7 -6 0 -9 2 -6 5 3 3 -10 50 -29 103 -19 53 -35 103 -36 110 0 6 -4 12 -8
12 -9 0 -112 -62 -119 -72 -3 -3 -17 -9 -32 -13 -32 -8 -54 1 -271 108 -87 43
-182 85 -210 92 -29 8 -111 46 -184 84 -72 39 -133 71 -136 71 -2 0 -15 -28
-28 -62 l-24 -63 -5 135 c-3 79 -9 136 -15 136 -5 1 -48 9 -95 18 -47 9 -98
18 -115 21 -16 3 -41 8 -55 12 -14 3 -34 6 -45 8 -11 1 -24 3 -28 4 -4 0 -5
16 -2 34 6 31 5 34 -17 31 -13 -1 -23 -3 -23 -4 0 0 -46 -3 -102 -6 l-102 -5
-27 41 c-31 46 -42 49 -76 18 -13 -13 -61 -53 -107 -90 -75 -62 -111 -81 -111
-60 0 4 -33 41 -73 83 -39 42 -93 99 -119 127 l-48 51 -26 -34z m-2770 -6407
c-3 -4 -9 -8 -15 -8 -5 0 -9 4 -9 8 0 5 7 9 15 9 8 0 12 -4 9 -9z m-181 -93
c20 -16 41 -39 47 -51 11 -20 32 -34 85 -55 22 -8 89 -30 108 -33 7 -2 19 -6
27 -9 8 -3 74 -24 145 -47 127 -41 165 -61 165 -86 0 -7 14 -24 31 -38 28 -24
29 -31 5 -27 -5 1 -29 4 -55 6 -297 28 -536 26 -693 -6 -72 -14 -212 -60 -219
-71 -3 -5 -10 -10 -15 -9 -9 0 -75 -31 -109 -52 -53 -31 -133 -96 -189 -152
-62 -62 -70 -73 -128 -157 -29 -43 -37 -48 -69 -48 l-36 0 0 -170 c0 -119 3
-170 11 -170 6 0 47 14 91 31 95 37 80 32 230 67 l120 28 5 71 c4 64 8 74 35
98 17 15 49 36 72 46 42 20 42 20 85 -2 62 -32 95 -73 118 -149 45 -153 136
-222 307 -235 22 -1 47 -6 54 -10 8 -6 10 -4 4 5 -5 9 -4 11 4 6 14 -9 138 -9
199 -1 126 17 236 145 247 287 5 57 12 120 20 173 2 11 4 26 4 33 1 8 10 4 25
-10 23 -23 170 -157 254 -233 24 -22 54 -50 65 -62 11 -13 26 -23 33 -23 8 0
18 -9 24 -20 6 -11 17 -20 25 -20 9 0 23 -4 33 -9 35 -19 161 -55 168 -49 3 4
3 15 -1 25 -5 10 -10 42 -12 71 -4 50 -4 52 21 52 14 0 36 -10 50 -22 14 -13
38 -33 53 -45 15 -12 39 -32 53 -44 14 -12 35 -31 46 -41 12 -11 30 -21 40
-22 16 -2 19 -12 19 -62 2 -136 -41 -229 -129 -284 -62 -39 -72 -60 -81 -160
-4 -47 -2 -76 10 -103 8 -20 15 -39 15 -42 0 -3 0 -20 1 -37 0 -32 0 -33 15
-11 15 20 17 21 35 5 22 -19 24 -31 6 -46 -8 -6 -54 -58 -103 -116 -49 -58
-93 -110 -99 -116 -5 -6 -35 -39 -65 -74 -201 -230 -389 -365 -610 -440 -93
-31 -135 -41 -270 -59 -102 -13 -350 -6 -460 15 -14 2 -40 7 -59 10 -18 3 -41
7 -51 9 -35 7 -166 48 -215 67 -53 21 -237 109 -245 118 -3 3 -25 19 -50 35
-25 17 -50 35 -56 40 -7 6 -27 21 -45 35 -84 64 -289 290 -289 318 0 5 -9 17
-20 27 -11 10 -20 24 -20 32 0 7 -4 13 -10 13 -5 0 -10 7 -10 15 0 8 -5 15
-12 15 -6 0 -8 3 -5 6 4 4 -2 19 -12 33 -26 39 -72 131 -65 131 4 0 0 7 -7 16
-13 16 -25 45 -55 134 -17 48 -20 59 -24 75 -1 6 -6 16 -12 23 -6 6 -8 12 -5
12 3 0 1 15 -4 33 -25 79 -55 245 -65 357 -10 110 -10 114 -2 132 5 9 4 19 0
22 -10 6 -9 86 1 104 5 7 3 12 -3 12 -6 0 -9 3 -7 8 3 4 8 30 11 57 29 218
130 393 316 548 25 20 49 37 54 37 5 0 17 6 25 14 17 14 112 65 171 90 79 34
231 77 329 92 18 3 43 8 55 10 11 3 37 7 56 9 19 3 49 7 65 9 49 8 148 20 173
20 12 1 22 4 22 7 0 3 10 5 22 4 12 -1 36 1 52 4 56 12 92 5 129 -24z m4850
-248 c8 12 94 9 302 -12 50 -4 116 -16 185 -31 36 -8 79 -17 95 -20 17 -3 36
-11 43 -16 6 -6 12 -8 12 -5 0 8 150 -46 218 -78 29 -14 57 -25 62 -25 6 0 10
-4 10 -10 0 -5 5 -10 11 -10 19 0 182 -118 237 -171 88 -85 239 -291 246 -333
1 -6 6 -18 11 -26 5 -8 11 -24 12 -34 2 -11 8 -25 14 -33 6 -7 9 -13 6 -13 -3
0 1 -17 10 -37 8 -21 14 -39 13 -41 -1 -1 2 -33 6 -70 9 -82 9 -146 0 -232 -7
-65 -42 -242 -53 -270 -3 -8 -7 -19 -9 -25 -1 -5 -11 -37 -22 -70 -113 -343
-309 -618 -626 -880 -27 -22 -55 -46 -62 -52 -7 -7 -16 -13 -21 -13 -4 0 -20
-11 -35 -25 -15 -14 -32 -25 -38 -25 -5 0 -10 -3 -10 -8 0 -6 -113 -74 -130
-78 -3 0 -22 -8 -42 -17 -21 -10 -44 -17 -53 -17 -8 0 -15 -5 -15 -12 0 -6 -3
-9 -6 -5 -3 3 -23 -1 -45 -8 -22 -8 -42 -14 -44 -14 -3 0 -18 -2 -33 -5 -37
-8 -93 -18 -117 -21 -11 -2 -20 -4 -20 -5 0 -3 -131 -10 -225 -11 -101 -2
-315 13 -315 21 0 1 -13 4 -30 6 -16 2 -52 10 -80 16 -27 7 -54 12 -60 13 -5
1 -17 4 -25 7 -31 12 -105 32 -112 30 -5 -1 -8 2 -8 8 0 5 -7 10 -15 10 -8 0
-23 4 -33 9 -9 5 -37 19 -62 31 -45 23 -160 97 -170 110 -3 3 -21 17 -40 30
-45 32 -195 180 -247 245 -86 108 -150 219 -196 340 -37 98 -38 111 -6 180 26
56 37 92 45 155 1 14 5 39 8 55 17 100 14 116 -22 121 -8 2 -16 4 -18 6 -11
12 259 289 304 312 16 8 62 18 101 21 121 10 158 33 176 110 7 28 46 103 65
122 26 29 62 38 89 24 11 -6 35 -33 53 -59 42 -61 59 -75 144 -118 138 -69
315 -88 424 -46 34 13 116 105 154 172 78 136 122 190 153 190 11 0 38 -29 72
-78 68 -96 151 -180 214 -216 26 -15 47 -23 47 -19 0 4 4 3 8 -4 4 -6 19 -13
32 -15 14 -2 30 -6 35 -9 6 -3 39 -11 75 -18 36 -7 84 -17 107 -22 68 -15 108
-11 129 12 18 20 18 22 -11 107 -15 48 -31 92 -34 97 -3 6 -6 12 -7 15 -13 65
-202 298 -325 402 -45 39 -161 100 -214 113 -16 4 -39 9 -50 12 -11 3 -29 6
-40 8 -11 2 -21 4 -22 5 -5 4 -15 6 -78 14 -32 4 -66 9 -75 11 -8 2 -50 8 -93
15 -43 6 -91 14 -105 17 -15 3 -37 6 -49 6 -13 1 -23 5 -23 11 0 5 -3 6 -7 3
-3 -4 -12 -2 -20 4 -7 6 -13 8 -13 4 0 -4 -7 -2 -15 5 -8 7 -15 10 -15 6 0 -3
-17 3 -37 14 -21 11 -43 20 -50 20 -7 0 -13 4 -13 9 0 15 30 81 38 82 4 1 23
3 42 4 19 2 35 4 35 5 0 2 33 4 179 14 49 3 92 8 95 11 2 3 8 0 12 -6 4 -7 9
-7 12 -2z m-459 -114 c9 -23 -1 -31 -52 -39 -26 -3 -55 -8 -64 -10 -10 -1 -18
0 -19 4 0 4 -2 15 -4 25 -2 10 3 17 13 18 42 3 63 7 67 10 10 11 54 5 59 -8z
m-6289 -235 c-4 -21 -8 -46 -10 -56 -2 -9 -4 -25 -4 -34 -1 -12 -9 -18 -27
-18 -22 0 -25 3 -20 24 3 12 8 41 11 62 10 65 14 72 36 67 18 -5 19 -11 14
-45z m5602 -23 c65 -31 65 -31 -91 -40 l-58 -3 28 30 c30 31 65 50 74 39 3 -3
24 -15 47 -26z m441 -161 c4 -2 -21 -31 -145 -161 -51 -54 -93 -101 -93 -105
0 -14 -23 -9 -42 9 -17 15 -19 15 -31 -1 -11 -15 -107 -36 -107 -23 0 3 45 43
101 89 56 45 113 94 128 108 42 38 120 103 134 112 6 4 21 -1 32 -10 11 -9 21
-18 23 -18z m-620 -199 c18 -22 18 -28 6 -75 -26 -100 -66 -225 -75 -234 -5
-6 -9 -17 -9 -26 0 -20 -52 -77 -105 -116 -22 -16 -43 -33 -47 -39 -14 -20
-41 70 -42 140 0 57 5 80 27 124 24 47 80 123 127 171 8 8 24 27 35 41 18 23
37 36 57 38 4 1 15 -10 26 -24z"/>
<path d="M8600 4624 c-74 -25 -146 -47 -160 -50 -14 -3 -34 -8 -45 -11 -35
-12 -48 -13 -127 -17 -42 -2 -81 -7 -87 -10 -5 -4 -13 -2 -16 4 -7 11 -43 -7
-71 -34 -25 -24 -82 -73 -134 -116 -30 -24 -70 -58 -88 -75 -17 -16 -56 -42
-85 -58 -53 -29 -78 -30 -237 -15 -87 8 -134 -27 -152 -113 -13 -63 -15 -65
-68 -48 -40 12 -62 17 -105 25 -16 3 -40 16 -53 29 -13 14 -32 25 -42 25 -34
0 -25 -21 30 -76 21 -21 25 -34 26 -92 1 -63 -8 -102 -24 -102 -18 1 -33 19
-38 45 -6 35 -23 66 -25 48 -1 -7 -2 -16 -3 -20 -2 -5 -6 -29 -10 -55 -5 -26
-12 -45 -17 -43 -4 3 -21 28 -36 55 -15 28 -30 50 -33 50 -3 0 -5 -37 -5 -82
1 -46 -4 -99 -11 -119 -15 -44 -10 -53 38 -68 26 -8 46 -26 70 -61 l33 -49
120 -2 c145 -2 202 0 235 7 40 9 289 14 294 6 2 -4 37 -6 78 -6 124 2 210 35
275 105 21 22 36 43 35 46 -2 3 0 9 5 12 19 13 68 138 77 196 8 50 140 204
202 235 47 24 117 73 142 99 29 31 65 108 93 199 11 37 29 93 39 125 10 31 18
57 17 56 -1 0 -63 -20 -137 -45z"/>
<path d="M6330 4500 c-11 -7 -12 -10 -2 -10 11 0 94 -52 112 -70 3 -3 55 -39
115 -80 104 -70 113 -75 168 -76 31 -1 57 3 57 7 0 5 -5 9 -12 9 -6 0 -9 3 -5
6 6 6 186 -49 219 -66 28 -16 76 -21 84 -9 3 6 -20 35 -54 66 -56 50 -60 57
-49 76 7 12 15 24 18 27 9 8 22 44 23 65 2 25 -19 41 -64 50 -58 11 -593 16
-610 5z"/>
<path d="M9482 4345 c-41 -35 -50 -21 120 -202 21 -24 35 -43 31 -44 -4 0 -30
-2 -58 -4 -127 -10 -170 -16 -177 -23 -5 -5 -17 -30 -27 -56 -10 -26 -22 -48
-27 -48 -5 0 -21 23 -35 51 -30 57 -28 59 -49 -46 -17 -83 -32 -96 -117 -96
-38 0 -75 2 -83 4 -9 3 -15 -4 -16 -16 -1 -19 -16 -73 -31 -115 -3 -8 -7 -30
-9 -48 -2 -18 -12 -48 -23 -65 -21 -34 -113 -127 -126 -127 -4 0 -18 -9 -32
-20 -55 -43 -212 -84 -358 -94 -44 -3 -136 -9 -205 -12 -166 -7 -212 -13 -285
-34 -16 -5 -41 -11 -55 -14 -14 -3 -65 -17 -115 -31 -49 -14 -101 -28 -115
-31 -14 -3 -38 -9 -55 -14 -92 -28 -275 -28 -370 0 -16 5 -59 11 -95 15 -112
10 -193 17 -250 20 -30 2 -55 4 -55 6 0 1 -25 3 -55 5 -85 6 -145 12 -145 13
0 1 -25 3 -55 5 -49 2 -229 53 -272 77 -10 5 -27 9 -38 9 -11 0 -20 5 -20 11
0 5 -4 8 -8 5 -5 -3 -32 3 -59 14 -28 10 -53 16 -57 13 -3 -4 -6 -1 -6 5 0 7
-3 11 -7 10 -5 -1 -82 22 -173 52 -91 30 -167 55 -170 55 -3 1 -12 4 -20 7
-21 8 -263 89 -275 93 -5 1 -25 6 -43 10 -18 4 -35 12 -38 16 -3 5 -14 9 -24
9 -12 0 -17 5 -14 13 3 8 -11 21 -36 33 -43 21 -50 41 -25 84 21 36 19 40 -16
28 -25 -8 -33 -8 -40 3 -6 10 15 25 84 59 62 30 91 50 89 60 -2 8 -5 28 -7 43
-2 16 -5 30 -7 32 -4 3 -138 17 -160 17 -10 -1 -18 1 -18 3 0 3 22 35 50 73
27 38 50 71 50 74 0 4 -16 1 -35 -5 -22 -6 -35 -17 -35 -27 0 -10 -8 -17 -17
-17 -49 0 -53 -2 -44 -25 4 -13 5 -35 1 -50 -5 -14 -6 -29 -3 -32 6 -6 8 -115
2 -121 -2 -2 -2 -38 1 -80 3 -42 2 -79 -1 -81 -4 -2 -4 -15 -2 -29 4 -17 -1
-31 -15 -42 -11 -10 -33 -54 -48 -98 -15 -44 -31 -87 -35 -97 -7 -13 6 -23 76
-57 47 -23 87 -41 89 -41 2 0 42 -17 88 -39 95 -44 176 -81 263 -121 33 -15
83 -38 110 -51 28 -12 52 -23 55 -24 3 0 15 -6 27 -13 21 -12 25 -10 43 20 37
62 41 65 75 61 18 -2 57 -11 86 -22 54 -18 54 -18 77 3 32 31 75 31 130 -1 26
-15 49 -30 52 -33 11 -14 77 -34 99 -31 13 1 40 18 60 37 39 37 49 39 101 24
19 -6 49 -13 65 -16 37 -7 59 -12 65 -14 3 -1 10 -3 15 -5 6 -1 12 -3 15 -4 3
-2 16 -4 30 -6 14 -2 63 -13 110 -25 47 -12 92 -23 100 -24 8 -1 26 -5 40 -9
108 -27 247 -58 305 -68 75 -12 243 -19 260 -10 6 3 19 6 30 7 11 1 47 5 80 7
33 3 60 6 60 7 0 4 228 21 330 25 65 2 176 -22 197 -43 7 -7 -21 -102 -41
-140 -6 -11 -23 -27 -38 -35 -16 -8 -50 -26 -78 -41 -37 -20 -58 -25 -84 -21
-35 5 -45 14 -82 73 -11 17 -22 32 -24 32 -6 0 -33 -96 -38 -134 -2 -17 5 -20
48 -23 73 -4 75 -7 64 -45 -17 -60 -13 -68 24 -55 17 7 35 16 38 20 3 5 9 8
13 7 4 -1 50 15 104 36 53 21 99 39 102 39 3 1 19 7 35 14 17 6 71 28 120 47
50 20 99 40 110 44 75 32 354 139 370 142 11 1 32 15 48 31 15 15 30 27 33 27
3 0 14 10 24 22 18 22 18 22 39 4 18 -16 23 -17 38 -5 40 32 53 50 53 72 0 15
22 45 61 85 34 34 64 62 66 62 2 0 17 14 33 30 16 17 32 30 34 30 3 0 16 10
30 23 13 12 30 27 38 32 61 47 104 81 108 86 15 17 139 95 166 105 40 14 113
15 139 1 27 -14 53 -48 59 -78 3 -18 15 -30 35 -37 34 -12 22 -33 98 183 25
72 50 141 56 155 5 14 11 30 13 35 1 6 14 43 29 83 20 58 23 77 14 88 -6 8
-17 14 -24 14 -8 0 -15 3 -17 8 -1 4 -21 19 -43 33 -108 70 -183 118 -210 133
-16 9 -43 25 -60 36 -61 38 -161 82 -201 87 -34 4 -46 0 -72 -22z"/>
<path d="M5203 4298 c-11 -13 -47 -48 -80 -79 -62 -59 -66 -70 -38 -113 19
-29 34 -24 58 19 20 38 100 150 109 153 9 4 -9 42 -21 42 -4 0 -17 -10 -28
-22z"/>
<path d="M6836 4019 c-45 -11 -61 -28 -76 -82 -6 -21 -14 -45 -17 -53 -10 -26
32 -15 53 14 69 92 95 132 87 131 -4 -1 -26 -5 -47 -10z"/>
<path d="M11097 3724 c-2 -3 -25 -5 -50 -6 -49 -1 -61 -15 -92 -108 -27 -81
-51 -115 -77 -112 -124 15 -128 15 -166 -10 -59 -39 -176 -138 -163 -138 21 0
11 -22 -23 -54 -29 -26 -77 -107 -144 -241 -30 -60 -54 -87 -73 -82 -19 5 -42
-14 -37 -30 3 -9 -57 -91 -107 -147 -11 -12 -36 -42 -55 -66 -19 -24 -44 -54
-55 -66 -11 -13 -31 -37 -45 -55 -14 -18 -29 -37 -35 -44 -51 -55 -97 -120
-101 -139 -2 -13 -15 -48 -29 -78 -14 -29 -25 -59 -25 -65 0 -7 -5 -13 -12
-13 -6 0 -9 -3 -5 -6 3 -3 -8 -35 -23 -70 -16 -35 -26 -64 -22 -64 4 0 2 -4
-3 -8 -16 -11 -48 -89 -41 -100 6 -11 -89 -203 -107 -214 -7 -4 -8 -8 -3 -8 5
0 3 -6 -3 -13 -6 -8 -8 -17 -4 -20 3 -4 2 -7 -4 -7 -6 0 -13 -10 -16 -21 -4
-14 -11 -20 -21 -16 -12 5 -75 -79 -171 -231 -5 -8 -74 -112 -152 -230 -79
-118 -143 -216 -143 -218 0 -2 -23 -35 -50 -74 -28 -39 -50 -74 -50 -78 0 -5
-9 -17 -20 -27 -11 -10 -20 -24 -20 -32 0 -7 -3 -13 -8 -13 -4 0 -13 -12 -20
-27 -25 -54 -51 -72 -288 -194 -131 -67 -263 -134 -291 -149 -48 -25 -53 -26
-53 -10 0 14 -6 18 -22 15 -26 -4 -98 -11 -203 -20 -38 -4 -81 -8 -95 -10 -15
-3 -48 8 -85 28 -90 50 -96 51 -91 22 4 -20 0 -25 -17 -26 -12 0 -31 -2 -42
-4 -17 -4 -71 -10 -155 -20 -14 -2 -25 -4 -25 -5 0 -1 -25 -3 -55 -6 -30 -2
-61 -7 -68 -9 -8 -3 -28 3 -44 12 -20 12 -32 14 -35 7 -2 -8 -22 -5 -61 8
-128 43 -134 43 -150 -10 -12 -35 -18 -41 -35 -38 -83 15 -98 19 -103 27 -3 5
-9 7 -14 4 -5 -3 -20 -1 -34 5 -27 10 -40 0 -41 -30 0 -15 -9 -16 -95 -5 -19
2 -35 5 -35 6 0 1 -11 2 -25 4 -14 1 -45 5 -70 10 -25 5 -54 10 -65 11 -29 3
-236 34 -265 40 -14 3 -50 8 -80 11 -30 3 -56 9 -58 14 -2 5 -8 9 -12 9 -11 0
-224 142 -228 153 -2 4 -8 7 -12 7 -11 0 -224 142 -228 152 -2 5 -8 8 -13 8
-11 0 -72 42 -77 53 -2 4 -10 7 -18 7 -8 0 -13 3 -12 8 4 11 -126 231 -138
234 -11 3 -115 92 -177 150 -15 15 -26 31 -23 36 5 9 -146 99 -275 164 -105
53 -125 50 -102 -18 11 -34 58 -84 241 -263 276 -268 328 -318 421 -401 71
-63 91 -81 232 -213 36 -34 85 -78 108 -97 23 -19 56 -47 73 -62 153 -134 377
-238 663 -308 138 -34 143 -35 220 -45 28 -3 57 -9 65 -12 8 -3 38 -7 65 -9
28 -2 66 -6 85 -8 190 -28 812 -28 935 -1 11 3 43 7 70 9 67 6 130 16 195 30
14 3 41 9 60 13 19 3 71 19 115 35 44 16 85 30 90 31 9 2 28 11 90 44 11 5 34
18 50 27 17 10 38 20 48 23 9 3 17 9 17 14 0 5 4 9 10 9 5 0 38 21 72 46 164
120 312 267 463 459 101 129 91 115 250 340 74 105 138 195 143 200 4 6 50 72
102 148 140 204 228 331 237 342 4 6 32 46 62 90 30 44 57 82 60 85 3 3 28 39
56 80 27 41 52 77 55 80 4 3 22 28 40 55 19 28 38 55 43 60 13 16 359 497 392
546 17 24 32 46 35 49 3 3 44 64 91 135 96 146 134 217 209 390 28 66 55 125
59 130 19 24 19 54 0 60 -24 8 -24 21 -1 34 15 10 15 11 -5 17 -28 8 -29 19
-3 67 11 20 20 39 20 41 0 6 -38 14 -43 10z"/>
<path d="M6067 3124 c-1 -1 -25 -4 -54 -7 -72 -7 -76 -12 -54 -56 18 -34 86
-91 110 -91 5 0 11 -4 13 -9 2 -4 41 -32 88 -61 47 -29 100 -63 118 -77 35
-26 56 -26 147 -3 22 6 47 13 55 15 8 2 15 4 15 5 0 1 8 3 18 5 31 6 30 12 -6
52 -20 21 -53 57 -75 81 l-39 42 -24 -19 c-41 -32 -92 -49 -118 -39 -30 11
-63 49 -92 105 -13 24 -28 47 -33 51 -10 6 -63 11 -69 6z"/>
<path d="M3722 3071 c-11 -6 5 -47 72 -181 89 -182 99 -190 100 -91 1 39 -9
61 -64 151 -58 95 -83 130 -92 130 -2 0 -9 -4 -16 -9z"/>
<path d="M6747 2852 c-55 -19 -77 -31 -75 -41 3 -15 52 -23 73 -12 5 3 23 6
39 7 16 2 33 9 37 16 8 12 13 59 7 57 -2 0 -38 -13 -81 -27z"/>
<path d="M3983 2766 c-13 -6 -23 -14 -23 -18 0 -5 -5 -8 -10 -8 -20 0 -36 -24
-32 -46 4 -21 5 -20 57 13 40 26 52 39 48 54 -6 21 -8 21 -40 5z"/>
<path d="M7798 2744 c-15 -8 -35 -15 -45 -17 -10 -2 -31 -9 -46 -15 -16 -7
-35 -12 -43 -12 -18 0 -18 -21 -1 -44 12 -17 18 -15 100 23 48 22 87 44 87 49
0 22 -25 30 -52 16z"/>
<path d="M4008 2647 c-28 -83 -26 -89 45 -207 36 -60 140 -204 159 -221 10 -9
18 -20 18 -23 0 -4 12 -20 28 -36 15 -15 52 -60 82 -99 30 -40 64 -82 75 -95
11 -12 45 -51 75 -86 30 -35 72 -81 93 -103 20 -22 37 -41 37 -43 0 -8 180
-184 188 -184 5 0 23 16 40 36 32 36 32 36 15 65 -10 16 -21 29 -25 29 -4 0
-8 6 -8 14 0 8 -3 16 -7 18 -5 2 -20 18 -35 36 -16 19 -28 30 -28 25 0 -4 -4
-3 -8 3 -4 6 -45 30 -91 53 -46 24 -88 47 -95 52 -42 35 -66 59 -66 66 0 4 -6
19 -13 33 -7 14 -19 54 -27 89 -10 46 -18 65 -32 69 -10 2 -48 50 -85 106 -36
55 -70 103 -75 104 -4 2 -8 7 -8 12 0 7 -128 202 -150 227 -5 7 -10 14 -10 17
0 9 -63 96 -69 96 -3 0 -14 -24 -23 -53z"/>
<path d="M6555 2104 c-22 -26 -46 -53 -54 -61 -17 -17 -20 -14 99 -95 96 -65
134 -79 297 -103 31 -5 70 -12 123 -22 19 -4 46 -8 60 -9 14 -1 25 -3 25 -4 0
-1 15 -4 33 -7 30 -4 32 -2 28 21 -3 19 0 26 12 27 9 0 31 2 47 4 17 2 54 6
84 9 29 3 55 7 56 8 2 2 -1 14 -6 27 -7 18 -15 22 -34 19 -17 -4 -26 0 -30 11
-10 28 -55 72 -78 76 -12 2 -40 6 -62 9 -22 4 -51 8 -65 11 -14 3 -41 7 -60 9
-20 3 -47 7 -60 10 -14 3 -47 8 -75 11 -72 8 -85 14 -85 36 0 16 -4 18 -17 10
-13 -6 -22 -5 -31 5 -7 8 -9 14 -5 14 4 0 2 5 -4 11 -6 6 -44 13 -85 15 l-74
5 -39 -47z"/>
<path d="M8225 2088 c-38 -10 -79 -21 -90 -23 -11 -3 -72 -21 -135 -40 -63
-20 -122 -38 -130 -40 -8 -2 -33 -9 -55 -17 -43 -14 -42 -12 -44 -105 -1 -33
-5 -42 -18 -42 -22 0 -114 -8 -168 -15 -22 -3 -71 -8 -110 -11 -38 -3 -81 -8
-95 -10 -14 -2 -52 -7 -85 -10 -33 -3 -82 -8 -110 -11 -99 -10 -127 -15 -173
-35 -26 -12 -54 -22 -62 -24 -15 -3 -96 -30 -138 -46 l-22 -9 37 -57 c20 -32
44 -67 53 -78 11 -13 15 -28 10 -45 -10 -37 8 -80 33 -81 12 -1 81 -3 154 -4
72 -1 139 -5 147 -8 9 -4 16 -1 16 6 0 7 3 8 8 2 4 -6 61 -11 128 -12 l121 -2
48 35 c27 18 59 34 72 34 13 0 23 5 23 11 0 6 6 9 14 6 8 -3 17 -3 20 0 3 4
23 8 44 9 20 2 55 5 77 8 22 3 60 8 84 11 51 7 85 23 124 59 15 14 31 26 34
26 3 0 20 12 38 28 17 15 51 42 74 61 45 36 44 50 -4 53 -17 1 -33 6 -36 10
-3 5 -19 11 -35 14 -42 6 -102 34 -108 50 -3 9 10 18 42 27 27 8 46 19 44 26
-2 9 10 10 44 5 46 -7 47 -6 41 17 -5 22 5 30 115 94 159 93 159 92 111 119
-59 34 -63 34 -138 14z"/>
<path d="M8528 2012 c-1 -4 -24 -25 -50 -47 -34 -28 -45 -42 -37 -51 13 -16
26 -13 84 20 64 37 85 55 85 75 0 12 -3 12 -12 3 -15 -15 -48 -16 -48 -2 0 12
-17 13 -22 2z"/>
</g>
</svg>
