<svg width="460" height="739" viewBox="0 0 460 739" fill="none" xmlns="http://www.w3.org/2000/svg">
<g clip-path="url(#clip0)">
<path d="M415.481 560.466C416.321 560.873 417.16 561.28 418.008 561.679C413.97 570.19 410.828 579.292 405.711 587.102C395.756 602.306 384.602 616.721 374.128 631.598C361.791 649.124 349.774 666.873 337.397 684.367C320.814 707.803 303.24 730.921 272.729 736.138C255.634 739.066 237.732 739.664 220.43 738.324C204.59 737.095 188.024 734.128 173.704 727.674C161.255 722.058 151.172 710.859 140.634 701.477C129.24 691.339 118.486 680.49 107.572 669.824C106.333 668.62 105.837 666.618 105.182 664.91C105.102 664.695 106.405 663.546 106.669 663.674C108.94 664.759 111.122 666.035 113.953 667.591C114.057 667.535 114.193 667.471 114.289 667.423C117.887 669.553 121.317 671.587 124.867 673.693C124.515 674.156 124.203 674.571 124.235 674.531C127.465 677.347 130.656 680.139 134.837 683.784H135.397C137.492 687.382 139.547 690.916 141.897 694.952C141.913 694.952 141.921 694.944 141.897 694.952C141.833 694.96 141.833 694.96 141.849 694.96C141.785 694.968 141.665 694.992 141.45 695.032C152.356 702.315 162.318 708.96 171.609 715.166C184.234 717.097 195.1 718.756 205.966 720.415C206.198 719.49 206.429 718.564 206.653 717.639C209.82 718.437 212.986 719.235 216.72 720.176C217.127 719.027 217.767 717.224 218.431 715.342C221.861 716.419 224.931 717.376 228.009 718.341C228.137 717.974 228.257 717.607 228.385 717.24C229.752 718.022 231.128 718.812 231.184 718.844C238.396 717.926 244.408 717.161 250.421 716.403C250.317 715.549 250.213 714.696 250.109 713.842C252.66 715.222 255.21 716.602 257.625 717.902C263.222 717.352 269.226 716.754 275.231 716.163C275.039 716.802 274.847 717.44 274.655 718.078C284.722 712.901 294.788 707.724 304.391 702.786C315.377 686.193 326.547 669.322 337.724 652.442C338.092 652.666 338.46 652.889 338.828 653.112C341.354 648.262 343.881 643.404 346.432 638.506C346.176 638.043 345.96 637.669 345.928 637.605C348.886 630.665 351.693 624.076 354.547 617.375C354.371 617.335 354.147 617.287 353.875 617.223C361.103 608.472 367.636 600.551 374.256 592.526C374.192 591.872 374.144 591.282 374.064 590.452H377.31C380.181 585.083 382.955 579.906 385.434 575.272C386.713 574.219 387.777 573.341 388.84 572.464C388.488 572.033 388.136 571.61 387.785 571.179C390.999 568.643 394.053 565.835 397.523 563.705C398.802 562.923 401.073 563.681 402.88 563.864C403.752 563.952 404.599 564.526 405.455 564.51C405.791 564.502 406.19 563.537 406.438 562.963C407.877 559.469 409.285 555.959 410.396 553.215C413.09 553.063 414.226 552.999 417.696 552.808C416.568 555.185 415.865 556.677 415.249 557.977C415.985 558.32 416.776 558.695 417.656 559.102C416.513 559.812 416.001 560.139 415.481 560.466ZM128.433 526.954C126.17 530.137 124.779 532.091 122.812 534.852L131.911 535.577C132.375 538.082 132.327 537.803 132.79 540.308L123.228 544.871C123.739 545.318 124.259 545.772 124.771 546.219C125.419 545.932 126.066 545.637 127.657 544.919C126.794 547.001 126.234 548.333 125.602 549.841C127.002 550.63 128.593 551.516 130.176 552.409C130.056 552.736 129.936 553.063 129.816 553.39C150.325 560.163 170.825 566.935 188.152 572.655C201.944 573.82 212.13 574.673 222.325 575.535C238.156 581.039 252.9 571.147 268.099 570.007C283.347 568.866 299.873 571.363 309.98 556.661C310.715 553.821 311.459 550.981 312.682 546.275C312.634 545.98 312.498 545.142 312.458 544.887C315.849 544.887 319.59 545.94 321.805 544.552C323.564 543.451 323.468 539.383 324.532 535.338C326.275 538.681 326.986 540.061 327.682 541.385C328.625 539.167 329.361 537.42 330.392 534.979C334.342 534.684 337.397 534.461 342.634 534.078C338.868 529.993 335.973 526.859 332.983 523.62C336.717 517.924 339.347 518.833 366.612 536.638C363.526 545.333 360.232 554.603 356.938 563.872C355.954 563.521 354.971 563.178 353.987 562.827C353.436 556.43 346.599 554.93 339.683 559.916C334.726 563.489 329.913 567.286 325.211 571.195C322.517 573.437 320.174 576.101 316.64 579.595C316.832 579.994 317.12 580.6 317.376 581.127C315.873 582.515 314.617 583.68 313.69 584.541C312.73 583.927 311.155 582.77 311.059 582.882C308.988 585.315 307.077 587.883 304.503 588.003C288.936 594.122 273.368 600.24 258.776 605.976C259.048 604.707 259.472 602.721 259.896 600.735C257.801 600.519 255.698 600.312 253.371 600.072C253.923 598.262 254.723 595.677 255.866 591.944C260.048 602.793 265.684 596.068 269.874 594.122C271.953 593.156 272.393 588.681 273.576 585.793C270.81 585.036 268.035 583.624 265.277 583.648C259.008 583.703 252.74 584.453 246.479 584.956C240.858 585.403 235.133 586.806 229.641 586.16C221.445 585.203 213.41 582.858 205.318 581.031C198.69 579.531 192.085 577.928 185.465 576.388C185.129 576.309 184.538 576.301 184.418 576.492C178.661 585.219 174.167 575.814 169.058 575.471C168.227 575.415 167.283 575.702 166.532 576.101C165.82 576.476 165.172 577.776 164.701 577.681C161.942 577.114 159.072 575.359 156.569 575.822C154.914 576.125 153.811 579.468 153.147 580.441C140.85 574.825 129.448 569.616 116.136 563.537C117.103 560.937 118.718 556.589 120.333 552.234C120.725 552.497 121.125 552.752 121.517 553.015V529.882C122.42 529.858 123.324 529.834 124.235 529.818C124.331 529.284 124.243 528.454 124.555 528.27C125.299 527.8 126.226 527.648 128.433 526.954ZM316.96 579.452C316.736 578.973 316.784 579.085 316.96 579.452V579.452ZM202.336 513.848C193.988 513.289 185.577 513.688 176.27 513.688C181.403 517.214 187.544 521.625 193.932 525.646C195.204 526.444 197.41 525.758 199.929 525.758C199.649 525.502 200.081 525.901 198.13 524.138C205.046 526.436 209.1 527.776 213.146 529.124C213.497 528.749 213.841 528.374 214.193 527.991C212.066 526.077 209.939 524.162 207.885 522.32C215.265 513.457 206.789 514.143 202.336 513.848ZM47.8777 584.892C47.222 585.235 46.5744 585.578 45.9188 585.921C48.5733 591.242 51.2278 596.562 54.5939 603.295C55.0017 600.415 55.9372 598.461 55.3375 597.296C53.1227 593.013 50.4043 589 47.8777 584.892ZM98.4095 650.209C94.6676 647.52 89.5345 646.348 86.5761 643.101C84.0495 640.317 83.7537 635.515 82.5304 631.781C82.2106 631.925 81.3231 632.332 81.3311 632.332C75.0945 623.031 69.3217 614.431 61.9818 603.487C60.9024 607.451 59.3673 609.876 60.0309 611.248C62.1417 615.652 64.8762 619.8 67.7306 623.788C70.5451 627.729 73.8072 631.351 76.8695 635.116C80.5155 639.942 84.5293 644.497 88.567 649.044C90.2941 650.982 92.0131 652.929 93.8121 654.795C96.1148 657.181 98.5055 659.486 100.856 661.823C102.631 659.949 104.414 658.066 104.606 657.867C102.072 654.644 100.664 651.836 98.4095 650.209ZM61.0623 599.961C59.4472 600.926 57.7522 601.795 56.289 602.952C55.9772 603.199 56.4969 604.5 56.6328 605.313C58.4318 604.101 60.2388 602.888 62.0378 601.676C61.71 601.102 61.3901 600.535 61.0623 599.961ZM217.016 544.081C216.784 542.884 216.544 541.68 215.896 538.393C215.017 542.414 214.577 544.424 214.169 546.299C212.698 543.93 211.483 541.975 210.267 540.021V548.102C210.043 549.178 209.588 551.324 209.132 553.462C212.722 553.614 213.705 554.922 214.649 556.27C215.624 557.658 216.584 559.054 216.88 559.485C221.861 559.485 224.076 559.461 226.282 559.493C227.658 559.509 229.049 559.74 230.416 559.652C236.013 559.293 241.778 557.762 247.151 558.655C261.391 561.024 269.218 556.039 272.393 542.318C273.264 538.577 276.287 534.931 279.197 532.155C282.683 528.821 288.52 527.297 290.79 523.476C294.309 517.565 295.668 510.37 297.307 505.576C290.703 507.658 284.81 509.835 278.733 511.303C275.255 512.141 271.497 511.83 267.188 512.077C263.933 514.877 261.047 517.525 257.977 519.942C254.659 522.551 251.492 526.037 247.678 527.186C241.274 529.108 230.504 521.426 229.984 535.641C226.73 534.859 223.116 533.99 219.454 533.113C219.062 532.514 218.639 531.477 217.863 530.879C217.559 530.64 216.488 531.389 215.56 531.764C217.255 533.759 219.382 535.227 219.886 537.125C220.478 539.359 219.662 541.967 219.462 544.408C218.647 544.289 217.831 544.185 217.016 544.081ZM252.348 601.109C249.166 602.242 245.983 603.367 242.801 604.5C243.201 605.409 243.601 606.326 244.001 607.236C247.031 605.824 250.061 604.42 253.091 603.008C252.852 602.378 252.604 601.748 252.348 601.109ZM113.433 531.142C113.257 531.318 114.273 532.658 115.776 535.258C118.838 530.863 121.141 527.6 123.332 524.266C123.444 524.09 122.596 523.277 122.188 522.766C119.238 525.526 116.256 528.262 113.433 531.142ZM202.072 595.119C199.01 596.084 196.547 596.858 194.092 597.631C194.148 598.19 194.204 598.748 194.26 599.299C196.643 599.059 199.074 599.019 201.36 598.413C201.872 598.278 201.864 596.172 202.072 595.119ZM449.198 389.038C436.789 385.592 436.317 392.452 435.35 402.096C430.441 450.988 382.731 486.845 334.142 478.166C309.476 473.755 292.166 458.973 280.852 436.845C279.485 434.164 276.111 432.505 273.208 429.976L272.904 432.481C271.889 432.521 272.153 432.513 271.137 432.545C270.058 427.184 269.027 421.808 267.875 416.463C266.916 412.028 265.788 407.625 264.773 403.197C264.605 402.447 264.261 401.235 264.597 400.956C273.056 393.952 265.077 385.767 266.188 378.261C266.252 377.806 264.525 376.61 263.59 376.562C245.959 375.644 228.313 374.432 210.691 374.559C208.412 374.575 206.182 381.651 204.151 385.081C209.068 394.765 210.531 403.907 204.423 412.778C200.473 418.505 195.939 423.834 190.598 428.461C164.925 463.265 131.591 476.188 91.2535 459.149C51.7475 442.461 35.9803 409.571 38.4909 366.822C33.3418 366.431 27.7928 365.458 22.2999 365.713C10.6904 366.255 18.0942 356.762 15.0959 352.782C13.7766 351.027 13.2889 348.642 11.1701 343.497V351.186C10.6664 351.163 10.1627 351.131 9.65894 351.107C9.89081 348.761 10.3625 346.408 10.2906 344.071C10.1467 339.149 9.82684 334.227 9.39508 329.321C7.73201 310.4 6.18887 291.47 4.19798 272.58C3.27049 263.805 0.663942 255.158 0.208196 246.383C-0.199577 238.47 1.73535 230.461 1.80731 222.484C1.86327 216.796 -0.519399 210.981 0.0962583 205.429C1.11969 196.167 3.44639 187.025 5.62918 177.924C7.31624 170.896 8.36366 163.262 11.9936 157.279C15.9994 150.658 22.9236 145.848 27.9927 139.777C30.5193 136.746 31.6067 132.566 33.6456 129.08C34.4052 127.779 36.0203 126.974 37.4435 125.777C36.6839 125.394 36.2521 125.171 35.4446 124.764C36.596 124.094 37.4435 123.591 37.8512 123.352C38.8267 124.413 39.5703 125.211 42.4087 128.282C40.6817 124.597 40.3139 123.807 40.2659 123.711C44.8234 118.917 49.117 114.442 53.3226 109.887C53.6664 109.52 53.6984 108.212 53.4586 108.084C52.699 107.661 51.7395 107.589 47.9416 106.688C60.5586 100.362 71.2007 95.0174 81.8428 89.6807C81.1871 88.532 80.5235 87.3753 79.8679 86.2266C81.7628 84.8147 83.6258 83.3708 85.5527 82.0147C86.2403 81.5361 87.1518 81.3845 87.8394 80.8979C95.1074 75.7527 102.287 70.4958 109.619 65.4463C113.041 63.085 116.655 60.9631 120.349 59.0646C121.125 58.6657 122.524 59.4554 124.059 59.9181C124.603 60.8674 125.546 61.5773 126.882 61.713C126.77 62.0879 126.65 62.4548 126.538 62.8298C128.401 63.0451 130.264 63.2685 130.784 63.3243C133.71 59.8144 135.941 57.1341 137.452 55.3233C143.217 51.0954 147.862 47.5217 152.699 44.2351C154.834 42.7833 157.377 41.9217 159.743 40.797C159.799 40.773 159.895 40.7332 159.919 40.7491C167.387 48.6305 166.604 36.25 170.937 36.6329C170.817 37.0318 170.625 37.7018 170.425 38.3719C170.761 38.6033 171.097 38.8266 171.433 39.058C172.001 38.0688 173 37.0717 172.992 36.0825C172.992 35.6118 172.169 35.1412 171.873 35.0295C176.494 33.5458 181.307 31.9982 185.249 30.7298C187.68 28.592 189.527 26.8689 191.55 25.3772C191.71 25.2575 193.045 26.6934 194.724 28.2171C196.379 27.2997 198.514 25.5367 200.929 24.9943C202.544 24.6274 204.519 26.1909 206.397 26.51C207.285 26.6615 208.564 26.1669 209.244 25.5208C210.123 24.6912 210.587 23.4308 211.371 22.1225C211.938 22.8644 212.242 23.2712 212.682 23.8456C215.824 19.7055 218.894 15.6531 222.293 11.17C223.82 14.8235 225.019 17.7032 226.218 20.575C227.114 20.3995 226.93 20.4314 227.826 20.2559V15.1904C228.601 14.7916 229.441 14.3528 230.696 13.7067C230.432 14.5921 230.208 15.3579 230.088 15.7807C232.575 15.1266 237.212 13.9141 241.85 12.6936C240.395 11.2258 238.947 9.76599 237.492 8.2982C242.058 7.03782 246.631 5.77743 251.284 4.49312C252.164 5.49026 252.732 6.1364 253.523 7.02984C253.707 5.93697 253.859 5.08342 253.947 4.54098C256.13 4.28571 258.089 4.05438 258.504 4.00651C260.064 6.00877 260.895 7.0777 261.735 8.15461C262.87 7.19736 263.997 6.2401 265.668 4.82816C264.069 4.47716 263.51 4.34953 262.214 4.06235C263.014 2.84185 263.638 1.8846 264.885 -0.0299072C269.386 4.77232 273.448 9.10389 277.942 13.8981C281.62 10.8668 285.849 7.38083 289.855 4.07831C291.414 6.22415 292.765 8.07484 293.157 8.62526C298.234 8.29022 301.537 8.07484 305.726 7.79564C305.358 8.96828 304.999 10.117 304.751 10.9306C310.212 11.9597 316.28 13.0924 322.965 14.3528V28.3447C323.948 25.9196 324.468 24.6114 325.803 21.3089C330.241 23.71 334.51 26.1909 338.94 28.3527C340.963 29.3418 343.417 29.4455 345.448 30.4028C351.789 33.4022 357.849 37.1355 364.422 39.4329C366.332 40.103 369.603 36.9121 373.496 34.8221C375.176 39.6403 377.214 45.4875 378.957 50.4971C389.631 54.9803 400.561 59.5671 411.491 64.154C411.707 63.6674 411.923 63.1807 412.147 62.6941C416.089 64.2656 420.031 65.8291 423.972 67.4006C423.796 67.8474 423.621 68.2861 423.445 68.7328C428.738 71.9476 434.023 75.1624 439.316 78.3851C439.292 78.4091 439.268 78.433 439.236 78.4569C442.402 80.2677 445.576 82.0785 449.206 84.1606C445.704 88.5161 442.794 92.1217 439.883 95.7354C441.347 96.6288 442.81 97.5063 444.265 98.4077C447.064 100.147 449.878 101.854 452.612 103.665C453.316 104.127 453.78 104.957 455.139 106.52C450.981 105.906 447.671 105.276 444.329 104.989C443.202 104.893 441.986 105.587 440.867 106.066C440.667 106.153 440.603 107.254 440.739 107.318C441.874 107.829 443.042 108.347 444.257 108.602C446.816 109.137 449.398 109.52 451.589 109.895C450.542 113.381 449.014 116.149 449.27 118.749C449.374 119.77 453.444 120.409 455.259 121.063C456.73 118.622 457.818 116.811 459.952 113.269C459.001 119.212 458.361 123.161 457.73 127.109C456.97 126.679 456.202 126.256 455.443 125.825C453.796 129.255 452.221 132.717 450.478 136.1C449.702 137.607 448.543 138.907 447.639 140.359C447.191 141.069 446.544 141.947 446.648 142.657C447.311 147.323 447.639 152.142 449.078 156.585C450.717 161.65 455.027 166.277 455.339 171.263C456.522 190.017 456.378 208.851 457.074 227.645C457.562 240.823 459.577 254.025 459.129 267.148C458.561 283.668 456.003 300.109 454.611 316.606C453.66 327.909 453.236 339.253 452.445 353.013C448.311 325.684 444.529 300.739 440.859 276.489C440.323 276.369 439.979 276.297 439.788 276.257C439.979 276.297 440.307 276.369 440.731 276.457C439.716 271.048 438.596 266.087 437.885 261.061C436.869 253.914 436.541 246.646 435.222 239.563C433.767 231.785 431.64 224.119 429.569 216.461C428.098 211.021 426.971 205.301 424.388 200.379C419.319 190.703 413.418 181.441 407.621 172.164C406.974 171.119 404.775 170.991 403.272 170.529C402.376 170.25 401.417 170.154 400.489 169.97C400.777 169.197 401.065 168.431 401.657 166.843C396.843 163.916 391.734 160.557 386.361 157.678C384.155 156.497 381.38 156.353 378.861 155.739C380.996 158.834 382.891 162.145 385.362 164.953C387.001 166.819 389.464 167.984 390.599 172.236C381.612 170.114 372.633 168 360.344 165.096C355.642 164.53 347.415 163.533 338.524 162.464C334.134 171.717 330.217 162.169 325.843 161.164C319.487 159.696 313.21 157.861 306.334 156.026C292.158 155.388 277.79 154.742 263.462 154.096C263.118 154.973 262.934 155.46 262.334 156.984C246.159 151.152 230.048 145.337 213.929 139.522C214.049 139.179 214.169 138.828 214.289 138.485C199.034 134.057 183.786 129.638 168.139 125.099C167.987 124.676 167.667 123.807 167.203 122.522C161.247 121.198 155.178 119.842 149.085 118.486C149.333 117.609 149.565 116.771 149.837 115.774H142.945C142.849 116.46 142.761 117.138 142.665 117.824C139.003 116.795 135.237 114.657 131.711 115C126.114 115.535 120.357 117.026 115.256 119.372C104.11 124.477 93.1085 129.981 82.4984 136.1C77.2293 139.139 71.5685 142.84 73.5994 151.104C73.9272 152.453 69.6256 154.838 67.5947 156.864C65.5238 158.93 63.373 160.98 61.67 163.333C58.7116 167.402 55.9372 171.614 53.3546 175.929C51.5076 179.016 50.1004 182.367 48.2774 186.036C48.3174 186.02 47.7577 186.228 47.0461 186.491C47.302 187.241 47.5339 187.911 47.8377 188.804C45.9028 190.097 43.9599 191.397 40.5937 193.638C34.4371 221.088 27.9847 249.829 21.5483 278.507H21.1885C20.1091 283.309 19.1417 287.577 18.1822 291.845C18.462 291.837 18.7419 291.821 19.0217 291.813C17.6705 300.005 16.3192 308.206 15.3518 314.069C15.8715 317.874 16.1593 319.565 16.3192 321.264C17.2627 331.028 16.6231 341.391 20.0052 350.229C21.0766 353.029 32.966 352.79 39.6742 351.992C43.3282 351.553 46.9742 347.445 49.7886 344.27C64.8122 327.327 85.097 323.283 106.157 320.77C115.904 319.605 125.594 317.954 133.39 316.805C132.87 316.63 131.759 316.247 130.184 315.704C135.205 315.473 138.923 314.356 141.969 315.321C153.939 319.118 165.804 323.314 177.454 327.981C179.948 328.978 181.379 332.568 183.362 334.913C184.09 335.767 185.001 336.469 185.825 337.242C186.313 336.07 186.808 334.905 187.288 333.733C187.984 332.049 188.663 330.358 189.959 327.175C192.901 332.432 195.116 336.405 198.802 342.994C194.276 341.566 193.653 341.375 193.037 341.175L192.485 342.005C193.613 342.651 194.724 343.289 194.892 343.385C194.116 348.163 192.093 352.702 193.029 356.523C194.756 363.623 198.202 370.308 200.489 376.059C208.812 358.932 224.204 369.965 236.061 368.8C247.127 367.707 258.52 369.997 269.778 370.387C271.121 370.435 273.048 368.186 273.864 366.582C278.957 356.523 283.874 346.376 288.672 336.174C289.495 334.419 289.439 332.257 289.791 330.286C290.87 331.308 291.958 332.329 293.037 333.35C295.468 331.954 295.3 332.049 297.731 330.653L297.499 329.672C308.9 326.729 320.166 323.051 331.736 321.057C342.865 319.134 354.283 318.847 365.581 317.898C366.308 319.318 366.356 319.414 367.084 320.826C365.957 322.142 364.829 323.45 364.15 324.248C364.757 326.665 365.237 328.587 365.885 331.148H376.775C374.48 335.607 374.528 335.424 386.049 338.431C404.607 343.273 420.31 352.367 430.545 369.191C431.112 370.132 431.584 371.153 431.944 372.19C432.28 373.163 432.4 374.2 432.432 374.352C438.452 374.727 444.449 374.264 449.822 375.852C451.933 376.474 453.212 381.619 453.724 384.89C453.932 386.11 450.334 389.357 449.198 389.038ZM21.6523 354.473C20.8847 354.337 20.1251 354.21 19.3575 354.074C18.9098 356.707 18.462 359.331 18.0063 361.964C18.7499 362.043 20.1251 362.259 20.1411 362.171C20.7328 359.626 21.1805 357.05 21.6523 354.473ZM107.564 322.413H125.411L125.466 321.839C119.518 321.504 113.569 321.169 107.612 320.834C107.596 321.352 107.58 321.879 107.564 322.413ZM196.467 385.137C195.635 385.672 195.204 385.951 195.084 386.023C191.558 383.047 188.28 380.159 184.849 377.471C184.146 376.921 182.859 377.12 181.835 376.977C181.859 377.814 181.779 378.668 181.931 379.489C182.243 381.228 182.595 382.951 182.947 384.682C182.747 384.643 182.547 384.603 182.331 384.587C181.203 384.499 180.1 383.988 179.013 383.526C179.029 383.494 179.053 383.454 179.069 383.422C178.909 383.398 178.757 383.374 178.597 383.358C178.205 383.199 177.821 383.055 177.43 382.951C176.39 382.672 175.351 382.377 174.311 382.09C173.768 381.595 173.048 381.244 172.145 381.164C171.697 380.399 170.985 379.784 170.002 379.513C164.125 374.121 158.296 368.768 151.548 362.578C151.02 366.758 150.349 369.406 150.413 372.031C150.612 380.486 143.984 387.801 135.645 388.009C116.775 388.487 112.194 385.863 109.02 374.424C108.252 371.656 104.862 368.497 102.088 367.755C100.017 367.205 96.4187 369.781 94.5717 371.895C93.3803 373.251 94.0999 376.282 93.94 379.354C93.6522 379.354 93.1085 379.378 92.5728 379.489C89.0308 380.223 85.4488 380.861 82.0027 381.906C78.3167 383.023 74.7587 384.563 71.1447 385.919V368.529C72.2161 368.473 73.2875 368.425 74.3509 368.369C74.311 368.21 74.279 368.058 74.255 367.946C74.295 368.106 74.3589 368.409 74.4789 368.92C92.133 340.441 119.022 340.752 148.478 344.302C146.055 342.3 145.655 341.973 145.263 341.646C144.96 339.676 143.928 338.806 142.737 338.415C135.821 336.126 128.865 333.948 119.606 330.988C119.782 330.901 119.926 330.837 120.054 330.773C119.99 330.773 119.926 330.757 119.862 330.741C118.998 330.446 118.63 328.922 117.807 328.236C116.344 327.024 114.545 324.942 113.145 325.125C101.248 326.737 89.0468 327.582 77.6291 330.957C57.0646 337.027 42.8565 351.067 42.3208 372.884C41.969 387.299 44.7674 403.03 50.7161 416.112C63.9887 445.316 87.6635 461.989 120.725 463.369C137.476 464.063 153.059 459.755 165.66 448.89C174.975 440.857 182.483 430.742 190.798 421.561L188.447 419.447C188.16 420.061 187.88 420.675 187.232 422.071C186.92 419.63 186.744 418.274 186.505 416.336C186.233 415.737 185.345 414.732 185.473 413.863C185.937 410.56 185.777 405.192 187.56 404.394C196.515 400.373 196.299 393.058 196.467 385.137ZM328.609 345.116C328.729 345.898 328.849 346.687 328.969 347.469L335.933 346.273C335.781 345.515 335.55 344.087 335.478 344.095C333.175 344.35 330.896 344.749 328.609 345.116ZM321.214 363.838C315.113 368.991 309.02 374.153 301.896 380.175C304.839 379.896 306.102 379.776 307.341 379.641C307.685 378.987 308.029 378.333 308.453 377.527C308.988 378.109 309.316 378.46 310.603 379.864C315.025 375.142 319.247 370.627 323.468 366.112C322.725 365.354 321.965 364.596 321.214 363.838ZM293.453 360.089C297.555 359.738 300.097 359.515 304.039 359.172C301.249 357.712 299.833 356.97 298.018 356.021C297.259 356.699 295.996 357.823 293.453 360.089ZM287.928 393.904C290.431 388.95 291.67 383.334 293.141 377.91C293.397 376.969 292.358 375.485 291.55 374.575C291.318 374.32 289.455 374.91 288.936 375.581C283.571 382.513 275.007 388.168 280.212 400.477C282.843 398.347 286.521 396.696 287.928 393.904ZM429.233 373.81C416.593 349.631 393.389 341.215 367.708 339.061C358.569 338.295 349.238 339.596 340.019 340.314C339.188 340.378 338.556 343.09 337.836 344.565C341.019 345.802 344.113 347.501 347.415 348.203C357.745 350.389 368.963 350.437 378.27 354.704C385.786 358.151 391.542 366.096 397.091 372.852C400.178 376.618 401.241 382.034 403.824 388.152C403.152 388.743 401.833 390.769 400.833 390.625C395.324 389.836 389.751 388.942 384.482 387.211C381.252 386.15 378.086 383.972 375.695 381.515C372.625 378.365 370.418 374.376 367.612 370.93C367.38 370.651 364.941 371.44 364.334 372.302C360.76 377.343 358.137 383.262 353.851 387.538C347.591 393.784 326.77 388.679 323.053 380.814C322.373 379.378 320.646 377.431 319.471 377.479C317.855 377.543 315.745 378.931 314.849 380.375C313.042 383.27 312.738 387.945 310.308 389.405C306.942 391.431 301.241 389.899 298.242 392.157C292.605 396.409 288.192 402.272 283.275 407.465C284.33 407.736 285.386 408.007 286.441 408.279C285.841 412.363 285.457 416.495 284.562 420.516C283.914 423.427 281.084 426.642 281.787 428.939C286.601 444.742 296.779 456.452 310.228 466.089C329.177 479.666 369.219 481.285 388.448 468.219C406.83 455.727 421.374 440.028 428.658 418.641C433.703 403.811 436.629 387.961 429.233 373.81ZM197.61 545.421C198.042 545.573 198.474 545.724 198.906 545.876C200.873 543.283 202.831 540.691 205.262 537.492C203.207 538.098 200.745 538.106 199.681 539.327C198.378 540.834 198.242 543.347 197.61 545.421ZM167.811 583.368C167.275 582.236 162.23 583.161 159.28 583.273C158.68 583.297 158.104 583.951 157.513 584.31C158.344 585.602 158.896 587.309 160.071 588.123C165.1 591.601 170.314 594.807 177.254 599.267C179.468 598.684 183.09 597.735 188.256 596.379C184.586 592.319 182.603 590.125 180.62 587.931C173.296 594.664 170.769 589.622 167.811 583.368ZM218.95 649.132C218.639 647.504 218.551 647.018 218.455 646.515C221.949 646.18 225.283 645.861 228.913 645.51C228.585 644.441 228.361 643.731 228.137 642.989C227.074 643.069 226.234 643.133 225.227 643.213C225.307 642.949 225.371 642.718 225.419 642.559C224.036 640.899 223.084 639.767 222.077 638.562C221.893 638.642 221.709 638.722 221.565 638.777C213.817 637.597 207.341 636.608 200.857 635.618L201.072 633.848C200.121 633.935 199.169 634.023 198.466 634.087C198.298 633.201 198.274 632.085 198.058 632.053C196.651 631.797 195.204 631.781 190.422 631.47C189.535 632.459 187.376 634.869 184.849 637.685C188.024 639.894 190.974 641.944 195.156 644.856C202.448 646.164 210.467 647.608 218.95 649.132ZM282.243 642.487C282.595 643.045 282.955 643.596 283.307 644.154C285.625 642.87 287.976 641.641 290.223 640.245C290.671 639.966 290.727 639.049 291.31 637.485C289.871 638.594 289.319 639.017 288.768 639.44C288.352 638.961 287.928 638.482 287.512 638.004C285.753 639.495 283.994 640.995 282.243 642.487ZM274.991 633.776C266.404 635.906 257.889 638.379 249.509 641.194C248.782 641.442 249.182 645.023 249.022 647.752C237.436 648.972 225.419 650.241 213.402 651.501C210.787 653.001 208.164 653.719 205.566 654.516C203.679 655.099 201.824 655.801 199.961 656.447C201.472 658.712 202.983 660.978 205.342 664.52C202.823 670.614 208.284 669.864 213.474 669.792C217.951 669.729 222.437 670.127 226.922 670.287C229.649 670.383 232.415 670.758 235.077 670.367C236.509 670.151 237.66 668.452 239.083 667.678C240.019 667.168 241.21 667.12 242.281 666.857C242.273 666.665 242.273 666.474 242.265 666.282C247.439 665.612 252.612 664.942 257.449 664.312C262.03 660.746 265.469 658.066 270.386 654.229C266.172 652.953 263.845 652.243 260.847 651.325C260.615 651.158 259.632 650.448 257.889 649.203C260.12 648.629 261.535 648.27 263.07 647.871C263.078 647.752 263.126 647.241 263.206 646.427C264.701 646.667 266.044 646.874 267.563 647.113C267.396 646.124 267.228 645.087 267.18 644.792C271.769 642.024 275.847 639.575 280.732 636.624C278.158 635.299 276.303 633.457 274.991 633.776ZM113.449 667.535C113.369 667.575 113.353 667.583 113.449 667.535V667.535ZM355.411 617.263C355.419 617.263 355.427 617.263 355.411 617.263V617.263ZM230.072 15.5494V15.5574C230.064 15.5574 230.064 15.5574 230.072 15.5494ZM133.542 316.709C133.526 316.701 133.51 316.701 133.486 316.693C133.51 316.693 133.526 316.701 133.542 316.709ZM133.782 316.789C133.798 316.789 133.798 316.789 133.782 316.789V316.789ZM221.349 638.873C221.317 638.881 221.317 638.881 221.349 638.873V638.873Z" fill="black"/>
</g>
<defs>
<clipPath id="clip0">
<rect width="460" height="739" fill="white"/>
</clipPath>
</defs>
</svg>
