<svg xmlns="http://www.w3.org/2000/svg" viewBox="0 0 582.48 583.4"><defs><style>.cls-1{fill:none;stroke:#000;stroke-linecap:round;stroke-miterlimit:22.93;stroke-width:10.39px;}.cls-2{fill:#231f20;fill-rule:evenodd;}</style></defs><title>niebodowynajecia</title><g id="Layer_2" data-name="Layer 2"><g id="Layer_1-2" data-name="Layer 1"><g id="Layer_1-2-2" data-name="Layer 1-2"><path class="cls-1" d="M485.65,81.72a286.41,286.41,0,0,1,91.63,210M38.6,155.91c75-139.3,248.71-191.42,388-116.43q11.32,6.09,22,13.18M78,483.54A286.4,286.4,0,0,1,5.2,313.8M513.8,471.55C414.54,594.65,234.31,614,111.14,514.84"/><path class="cls-1" d="M464.81,104.24a255.76,255.76,0,0,1,50.64,65.13M35.7,274.37C44.83,140.17,156.34,36,290.86,36A255.76,255.76,0,0,1,431.77,78.29M241.39,542.64A255.77,255.77,0,0,1,44.14,359.12m500-103a255.81,255.81,0,0,1-159,273.39"/><path class="cls-1" d="M450,136.52a222.1,222.1,0,0,1,56.41,208.3M228.64,78.27a222,222,0,0,1,184.6,27.79M248,509.25C127.64,485.59,49.3,368.88,73,248.58a222,222,0,0,1,91.81-139.92m306.37,312.4A222,222,0,0,1,290.9,513.45h-.7"/><path class="cls-1" d="M481.12,291.4h0a190.18,190.18,0,0,1-42.95,120.41m-200.61-303C338.4,79.33,444,137.17,473.52,238c.36,1.23.71,2.46,1,3.7M372.83,463.06a190.21,190.21,0,0,1-246.24-75.83m-25.81-89.61q-.11-3.12-.1-6.24a190.16,190.16,0,0,1,62.56-141"/><path class="cls-1" d="M452.81,291.4h0a162,162,0,0,1-36.55,102.49M245.51,136a162,162,0,0,1,112.61,8.08m44.21,29.83a161.86,161.86,0,0,1,36.52,51.7M393.09,417A161.9,161.9,0,0,1,130,273.55m13.92-50A162,162,0,0,1,217.84,147"/><path class="cls-1" d="M202,200.41a127.21,127.21,0,0,1,216.07,91c0,3.07-.11,6.14-.33,9.19m-46.57,89.46a127.18,127.18,0,0,1-206.7-112.68"/><path class="cls-1" d="M344.92,208.75a98.71,98.71,0,1,1-110.11,1.39"/><path class="cls-1" d="M226.78,285.54a64.46,64.46,0,0,1,99.81-49.42m-48,117a64.43,64.43,0,0,1-49.7-46.26m126-26a64.44,64.44,0,0,1-40.09,68.9"/><path class="cls-2" d="M290.81,258.33a33.39,33.39,0,1,1-33.39,33.39h0a33.39,33.39,0,0,1,33.39-33.39Z"/></g></g></g></svg>