<?xml version="1.0" encoding="utf-8"?>
<!-- Generator: Adobe Illustrator 23.0.1, SVG Export Plug-In . SVG Version: 6.00 Build 0)  -->
<svg version="1.1" id="Layer_1" xmlns="http://www.w3.org/2000/svg" xmlns:xlink="http://www.w3.org/1999/xlink" x="0px" y="0px"
	 viewBox="0 0 512 512" style="enable-background:new 0 0 512 512;" xml:space="preserve">
<g>
	<g id="_x32_0-Search">
	</g>
	<g id="_x31_9-Web_Page">
	</g>
	<g id="_x31_8-Wifi">
	</g>
	<g id="_x31_7-Hotspot">
	</g>
	<g id="_x31_6-Satelite">
	</g>
	<g id="_x31_5-Receiver">
	</g>
	<g id="_x31_4-Receiver">
	</g>
	<g id="_x31_3-Receiver">
	</g>
	<g id="_x31_2-Ethernet">
	</g>
	<g id="_x31_1-Code">
	</g>
	<g id="_x31_0-Homegroup">
	</g>
	<g id="_x30_9-Sharing_Option">
	</g>
	<g id="_x30_8-Data">
	</g>
	<g id="_x30_7-Connectivity">
	</g>
	<g id="_x30_6-Computer">
	</g>
	<g id="_x30_5-Laptop">
	</g>
	<g id="_x30_4-Mobile">
	</g>
	<g id="_x30_3-Network">
	</g>
	<g id="_x30_2-Click">
		<g>
			<path d="M356.4,413.7c-21.2,13.5-44.6,22.5-69,26.7c3.7-4.6,7.3-9.4,10.7-14.2c1.4-2,1.1-4.7-0.7-6.4c-4.1-3.7-6.6-7.7-9.1-12.7
				c-1.7-3.3-6.2-3.6-8.3-0.5c-3.5,5.2-7.1,10.2-11,15.2v-46.4c0-3-0.7-6-2-8.8L251.5,334c-2-4.3-8.5-2.8-8.5,1.9v8.8h-42
				c-8.4-24.2-13.3-49.6-14.6-75.7h28.9c1.8,0,3.1-1.8,2.5-3.5c-2.2-6.3-2.6-13-1.1-19.3c0.4-1.6-0.9-3.2-2.6-3.2h-27.7
				c1.2-26.1,6.2-51.6,14.6-75.7h42v47.1c0,2.7,2.3,4.8,5,4.6c5.2-0.5,10,0.3,14.8,2.1c3,1.1,6.2-1.1,6.2-4.3v-49.5h42
				c8.4,24.2,13.3,49.6,14.6,75.7h-5.8c-3.5,0-4.7,4.7-1.5,6.4l30.6,15.8c4.8,2.5,10.2,3.8,15.6,3.8h78.2
				c-1.7,24.9-8.4,48.5-18.9,69.9c-2.8,7.3-6.5,11-12.5,16.8c-2.5,2.4-2.6,6.4-0.1,8.8l11.9,11.9c2.7,2.7,7.2,2.3,9.4-0.8
				c24-35.3,36.8-76.6,36.8-119.5c0-117.5-95.6-213-213-213c0,0,0,0,0,0C138.5,43,43,138.6,43,256c0,117.6,95.7,213,213,213
				c43.4,0,83.9-13.1,117.6-35.5c2.3-1.5,2.6-4.8,0.7-6.7l-12.5-12.5C360.4,412.9,358.1,412.6,356.4,413.7z M420.6,167.3
				c12.4,22.8,20.1,48.5,22,75.7h-91c-1.1-26-5.6-51.4-13.2-75.7H420.6z M403.6,141.3h-74.7c-10.5-24.8-24.4-48.3-41.4-69.6
				C334.4,79.6,375.4,105.2,403.6,141.3z M269,90.3c12.4,15.9,22.9,33,31.4,51H269V90.3z M243,141.3h-31.4c8.5-18,19-35.1,31.4-51
				V141.3z M224.6,71.7c-17.1,21.4-31,44.8-41.4,69.6h-74.7C136.6,105.2,177.6,79.6,224.6,71.7z M91.4,167.3h82.2
				c-7.6,24.3-12.1,49.7-13.2,75.7h-91C71.3,215.8,79.1,190.1,91.4,167.3z M91.4,344.7c-12.4-22.8-20.1-48.5-22-75.7h91
				c1.1,26,5.6,51.4,13.2,75.7H91.4z M108.4,370.7h74.7c10.4,24.8,24.4,48.3,41.4,69.6C177.6,432.4,136.6,406.8,108.4,370.7z
				 M243,421.7c-12.4-15.9-22.9-33-31.4-51H243V421.7z"/>
			<path d="M433.7,436.7c5.9-5.9,5.9-15.4,0-21.2L378,359.8l23.3-22.5c3.5-3.4,5.1-8.2,4.4-13c-0.7-4.8-3.7-8.9-7.9-11.2l-140-72.6
				c-5.8-3-12.8-1.9-17.4,2.6c-4.6,4.6-5.8,11.6-2.9,17.4l70,140c2.1,4.3,6.2,7.3,10.9,8.1c0.8,0.1,1.7,0.2,2.5,0.2
				c3.8,0,7.6-1.5,10.4-4.2l25-24.1l56.2,56.2c2.9,2.9,6.8,4.4,10.6,4.4S430.8,439.7,433.7,436.7z M325.2,368.9l-40.3-80.5
				l80.5,41.7L325.2,368.9z"/>
		</g>
	</g>
	<g id="_x30_1-Website">
	</g>
</g>
</svg>
