<?xml version="1.0" encoding="utf-8"?>
<!-- Generator: Adobe Illustrator 23.0.1, SVG Export Plug-In . SVG Version: 6.00 Build 0)  -->
<svg version="1.1" id="Layer_1" xmlns="http://www.w3.org/2000/svg" xmlns:xlink="http://www.w3.org/1999/xlink" x="0px" y="0px"
	 viewBox="0 0 171.9 174" style="enable-background:new 0 0 171.9 174;" xml:space="preserve">
<style type="text/css">
	.st0{fill:#FFFFFF;}
</style>
<title>linkedin</title>
<g>
	<g id="Layer_1-2">
		<path d="M171.9,156.6c0,9.6-7.7,17.4-17.3,17.4c0,0,0,0,0,0H17.3C7.7,174,0,166.2,0,156.6c0,0,0,0,0,0V17.4C0,7.8,7.7,0,17.3,0
			c0,0,0,0,0,0h137.3c9.6,0,17.3,7.8,17.3,17.4c0,0,0,0,0,0L171.9,156.6z"/>
		<path class="st0" d="M55.9,42.5c0,6.4-4.7,11.6-12.5,11.6c-7.3,0-12-5.2-12-11.6C31.4,36,36.3,31,43.8,31S55.8,36,55.9,42.5z
			 M32,137.6V63.2h23.2v74.4H32z"/>
		<path class="st0" d="M69,87c0-9.3-0.3-17-0.6-23.7h20.1l1.1,10.3H90c3-4.9,10.5-12,23-12c15.2,0,26.6,10.2,26.6,32.1v44h-23.1
			V96.4c0-9.6-3.3-16.1-11.7-16.1c-6.4,0-10.2,4.4-11.9,8.7c-0.6,1.9-0.9,3.8-0.8,5.8v42.9H69V87z"/>
	</g>
</g>
</svg>
