<?xml version="1.0" encoding="utf-8"?>
<!-- Generator: Adobe Illustrator 23.0.1, SVG Export Plug-In . SVG Version: 6.00 Build 0)  -->
<svg version="1.1" id="Layer_1" xmlns="http://www.w3.org/2000/svg" xmlns:xlink="http://www.w3.org/1999/xlink" x="0px" y="0px"
	 viewBox="0 0 232.1 232.1" style="enable-background:new 0 0 232.1 232.1;" xml:space="preserve">
<g>
	<g id="Layer_1-2">
		<path d="M116.1,232.1C52,232.1,0,180.1,0,116S52,0,116.1,0s116,52,116,116.1c0,0,0,0,0,0C232,180.1,180.1,232,116.1,232.1z
			 M116.1,9.1C57,9.1,9.1,57,9.1,116.1s47.9,107,107,107s107-47.9,107-107C223,57,175.1,9.1,116.1,9.1L116.1,9.1z"/>
		<polygon points="83.3,77.8 158.5,121.2 83.3,164.7 		"/>
	</g>
</g>
</svg>
