<?xml version="1.0" encoding="utf-8"?>
<!-- Generator: Adobe Illustrator 23.0.1, SVG Export Plug-In . SVG Version: 6.00 Build 0)  -->
<svg version="1.1" id="Layer_1" xmlns="http://www.w3.org/2000/svg" xmlns:xlink="http://www.w3.org/1999/xlink" x="0px" y="0px"
	 viewBox="0 0 1792 1792" style="enable-background:new 0 0 1792 1792;" xml:space="preserve">
<path d="M1792,1415.3c0,22.9-4.2,52.8-12.7,89.7c-8.5,36.9-17.4,66-26.7,87.2c-17.8,42.4-69.6,87.4-155.3,134.9
	c-79.8,43.3-158.7,64.9-236.7,64.9c-22.9,0-45.2-1.5-66.8-4.5c-21.6-3-46-8.3-73.2-15.9c-27.2-7.6-47.3-13.8-60.5-18.5
	c-13.2-4.7-36.7-13.4-70.6-26.1c-33.9-12.7-54.7-20.4-62.4-22.9c-83.2-29.7-157.4-64.9-222.7-105.6
	c-108.6-67-220.8-158.5-336.6-274.3c-115.8-115.8-207.2-228-274.3-336.6c-40.7-65.3-75.9-139.6-105.6-222.7
	c-2.5-7.6-10.2-28.4-22.9-62.4c-12.7-33.9-21.4-57.5-26.1-70.6S28,598.6,20.4,571.5S7.4,519.9,4.5,498.3S0,454.4,0,431.5
	c0-78.1,21.6-157,64.9-236.7C112.4,109,157.4,57.3,199.8,39.5c21.2-9.3,50.3-18.2,87.2-26.7S353.8,0,376.7,0
	c11.9,0,20.8,1.3,26.7,3.8c15.3,5.1,37.8,37.3,67.5,96.7c9.3,16.1,22.1,39,38.2,68.7c16.1,29.7,31,56.6,44.5,80.8
	c13.6,24.2,26.7,46.9,39.5,68.1c2.5,3.4,10,14,22.3,31.8s21.4,32.9,27.4,45.2c5.9,12.3,8.9,24.4,8.9,36.3c0,17-12.1,38.2-36.3,63.6
	s-50.5,48.8-78.9,70c-28.4,21.2-54.7,43.7-78.9,67.5c-24.2,23.8-36.3,43.3-36.3,58.5c0,7.6,2.1,17.2,6.4,28.6
	c4.2,11.5,7.8,20.2,10.8,26.1c3,5.9,8.9,16.1,17.8,30.5c8.9,14.4,13.8,22.5,14.6,24.2c64.5,116.2,138.3,215.9,221.5,299.1
	c83.2,83.2,182.8,157,299.1,221.5c1.7,0.8,9.8,5.7,24.2,14.6s24.6,14.8,30.5,17.8c5.9,3,14.6,6.6,26.1,10.8
	c11.5,4.2,21,6.4,28.6,6.4c15.3,0,34.8-12.1,58.5-36.3c23.8-24.2,46.2-50.5,67.5-78.9c21.2-28.4,44.5-54.7,70-78.9
	c25.5-24.2,46.7-36.3,63.6-36.3c11.9,0,24,3,36.3,8.9s27.4,15.1,45.2,27.4s28.4,19.7,31.8,22.3c21.2,12.7,43.9,25.9,68.1,39.5
	c24.2,13.6,51.1,28.4,80.8,44.5c29.7,16.1,52.6,28.8,68.7,38.2c59.4,29.7,91.6,52.2,96.7,67.5
	C1790.7,1394.5,1792,1403.4,1792,1415.3z"/>
</svg>
